<?xml version="1.0" standalone="no"?>
<!DOCTYPE svg PUBLIC "-//W3C//DTD SVG 20010904//EN"
 "http://www.w3.org/TR/2001/REC-SVG-20010904/DTD/svg10.dtd">
<svg version="1.0" xmlns="http://www.w3.org/2000/svg"
 width="482.000000pt" height="733.000000pt" viewBox="0 0 482.000000 733.000000"
 preserveAspectRatio="xMidYMid meet">

<g transform="translate(0.000000,733.000000) scale(0.100000,-0.100000)"
fill="#000000" stroke="none">
<path d="M2216 7300 c-102 -43 -185 -118 -246 -225 l-35 -60 -5 -1670 -5
-1670 -30 0 -30 0 -5 1445 -5 1445 -29 55 c-70 134 -154 211 -273 251 -53 17
-82 21 -161 17 -84 -3 -107 -8 -166 -36 -85 -40 -181 -134 -222 -218 l-29 -59
-7 -375 c-3 -206 -7 -871 -7 -1476 -1 -606 -4 -1116 -7 -1133 -7 -35 -18 -40
-29 -13 -4 9 -9 413 -12 897 -2 484 -8 909 -13 945 -19 135 -119 269 -249 333
-61 30 -74 32 -183 36 -118 3 -118 3 -194 -33 -97 -46 -179 -126 -228 -224
l-36 -72 0 -1597 c0 -879 4 -1650 9 -1713 25 -324 181 -759 378 -1060 174
-264 448 -536 712 -705 587 -375 1306 -476 1986 -280 665 192 1260 726 1524
1369 103 251 165 511 181 756 5 80 10 598 10 1152 l0 1008 -26 64 c-33 84
-105 171 -182 223 -76 51 -113 63 -218 70 -90 6 -160 -6 -231 -39 -67 -31
-183 -149 -219 -223 l-29 -60 -6 -265 c-4 -146 -7 -581 -8 -967 l-1 -703 -128
0 c-303 0 -619 -65 -814 -167 -85 -44 -233 -183 -267 -250 -21 -41 -54 -154
-66 -225 -6 -37 -7 -38 -50 -38 l-45 0 0 63 c0 109 53 244 136 350 49 63 156
147 254 201 173 94 548 176 806 176 l74 0 0 1778 c0 1749 -5 2070 -33 2163
-16 52 -77 139 -131 187 -136 119 -363 136 -528 39 -55 -32 -129 -111 -158
-167 -58 -114 -54 -8 -60 -1457 -5 -1336 -6 -1380 -37 -1349 -5 4 -12 731 -18
1614 l-10 1607 -35 65 c-45 85 -123 160 -207 202 -64 31 -74 33 -188 35 -101
3 -127 0 -169 -17z"/>
</g>
</svg>
