<?xml version="1.0" standalone="no"?>
<!DOCTYPE svg PUBLIC "-//W3C//DTD SVG 20010904//EN"
 "http://www.w3.org/TR/2001/REC-SVG-20010904/DTD/svg10.dtd">
<svg version="1.0" xmlns="http://www.w3.org/2000/svg"
 width="480.000000pt" height="524.000000pt" viewBox="0 0 480.000000 524.000000"
 preserveAspectRatio="xMidYMid meet">

<g transform="translate(0.000000,524.000000) scale(0.100000,-0.100000)"
fill="#000000" stroke="none">
<path d="M334 5221 c-111 -29 -222 -123 -283 -240 l-41 -79 0 -858 0 -857 36
-65 c50 -88 136 -172 220 -213 66 -33 73 -34 189 -34 115 0 123 1 187 33 88
43 177 131 220 220 l33 67 3 858 3 858 -33 62 c-48 90 -125 168 -209 212 -69
36 -77 38 -183 41 -61 2 -125 0 -142 -5z"/>
<path d="M1273 5215 c-106 -33 -228 -144 -282 -258 l-31 -64 0 -794 c-1 -939
-2 -928 87 -1046 50 -66 102 -108 183 -147 61 -29 72 -31 180 -31 109 0 119 2
183 32 94 45 175 125 227 224 l41 79 -3 837 c-4 949 1 890 -86 1005 -91 121
-212 179 -371 177 -47 0 -105 -6 -128 -14z"/>
<path d="M2247 5219 c-61 -14 -112 -45 -180 -109 -79 -74 -123 -153 -137 -246
-6 -41 -10 -388 -10 -857 l0 -788 37 -77 c136 -288 490 -365 721 -157 73 66
83 93 89 253 4 108 10 148 27 187 20 49 21 66 24 718 2 433 -1 689 -8 725 -40
220 -217 364 -443 361 -45 -1 -99 -5 -120 -10z"/>
<path d="M3185 5213 c-79 -29 -138 -68 -193 -128 -72 -79 -100 -142 -107 -240
-9 -144 -16 -1255 -8 -1255 5 0 32 19 60 43 29 23 85 60 125 82 l73 39 318 4
318 4 -3 572 -3 571 -24 59 c-31 77 -141 191 -225 231 -52 25 -72 29 -170 32
-88 3 -121 0 -161 -14z"/>
<path d="M3123 3671 c-147 -50 -269 -202 -292 -361 -27 -198 78 -389 268 -483
l74 -37 637 0 637 0 72 36 c103 51 182 129 228 222 38 76 38 77 38 201 0 118
-2 130 -29 184 -41 84 -131 177 -215 221 l-69 36 -648 0 c-598 -1 -653 -2
-701 -19z"/>
<path d="M896 3052 c-112 -185 -345 -286 -550 -238 -102 24 -181 70 -264 153
-40 40 -75 73 -79 73 -9 0 7 -813 18 -915 88 -773 568 -1470 1269 -1843 219
-117 496 -205 780 -249 159 -24 501 -24 660 0 449 69 829 232 1166 502 488
391 821 994 883 1600 13 123 26 798 17 814 -5 8 -37 -17 -92 -68 -95 -90 -164
-128 -255 -141 -35 -5 -202 -10 -370 -10 -168 0 -334 -3 -368 -6 l-61 -7 0
-98 0 -98 -32 -6 c-18 -3 -89 -12 -158 -20 -385 -48 -708 -150 -904 -285 -136
-94 -206 -188 -237 -318 -21 -88 -46 -115 -68 -74 -15 28 12 141 50 212 138
260 513 440 1084 520 83 12 160 23 173 26 20 4 22 10 22 73 l0 69 -172 7
c-215 8 -289 19 -355 51 -62 30 -191 147 -218 198 -11 20 -25 36 -33 36 -7 0
-42 -27 -78 -60 -41 -39 -94 -75 -146 -100 -80 -39 -84 -40 -194 -40 -211 0
-335 69 -462 254 l-34 49 -38 -61 c-81 -127 -199 -207 -355 -239 -65 -13 -94
-14 -154 -6 -147 21 -308 128 -378 251 l-31 54 -36 -60z"/>
</g>
</svg>
