<?xml version="1.0" standalone="no"?>
<!DOCTYPE svg PUBLIC "-//W3C//DTD SVG 20010904//EN"
 "http://www.w3.org/TR/2001/REC-SVG-20010904/DTD/svg10.dtd">
<svg version="1.0" xmlns="http://www.w3.org/2000/svg"
 width="483.000000pt" height="708.000000pt" viewBox="0 0 483.000000 708.000000"
 preserveAspectRatio="xMidYMid meet">

<g transform="translate(0.000000,708.000000) scale(0.100000,-0.100000)"
fill="#000000" stroke="none">
<path d="M2194 7036 c-82 -41 -168 -122 -207 -194 -53 -98 -52 -64 -50 -1918
l1 -1721 37 -73 c104 -206 338 -308 548 -239 74 24 182 101 226 161 30 41 31
44 31 158 0 179 33 275 135 387 58 65 134 116 215 143 56 19 100 23 364 32
166 6 302 12 304 13 2 2 109 383 238 847 491 1764 491 1765 475 1881 -14 99
-56 180 -135 255 -145 140 -330 168 -512 77 -92 -45 -173 -130 -204 -212 -24
-65 -220 -751 -479 -1678 -187 -672 -272 -965 -296 -1022 -38 -90 -39 -54 -43
1397 l-4 1395 -35 75 c-46 96 -145 198 -230 237 -51 24 -73 28 -183 31 l-125
4 -71 -36z"/>
<path d="M391 5239 c-70 -12 -123 -36 -191 -88 -71 -53 -115 -109 -156 -198
l-34 -72 0 -827 0 -828 39 -81 c66 -136 194 -241 323 -265 132 -25 256 1 356
75 65 47 132 128 157 189 30 71 37 316 30 1061 l-7 710 -35 67 c-45 86 -89
137 -159 183 -95 63 -218 91 -323 74z"/>
<path d="M1285 5222 c-122 -42 -222 -133 -280 -254 l-35 -72 0 -842 0 -841 37
-74 c46 -92 135 -185 215 -222 240 -113 498 -16 617 233 l36 75 3 710 c4 941
-1 1003 -96 1129 -109 143 -333 215 -497 158z"/>
<path d="M3330 3700 c-157 -7 -199 -18 -282 -71 -67 -44 -125 -112 -165 -196
l-35 -73 4 -127 c3 -123 5 -130 37 -190 41 -77 142 -176 213 -208 30 -13 85
-29 123 -35 41 -5 316 -10 653 -10 l584 0 88 46 c148 76 238 195 261 349 29
186 -80 383 -264 477 l-62 32 -225 7 c-266 9 -726 8 -930 -1z"/>
<path d="M1871 3068 c-70 -153 -314 -284 -492 -264 -164 19 -324 120 -401 255
-28 48 -33 53 -42 36 -65 -112 -181 -217 -280 -254 -214 -80 -407 -33 -577
140 l-76 78 4 -277 c5 -362 19 -655 38 -768 94 -574 425 -1135 880 -1489 364
-284 808 -464 1240 -505 478 -45 919 37 1330 245 527 267 935 714 1154 1263
140 351 195 803 164 1339 l-6 112 -27 -37 c-45 -62 -128 -130 -208 -169 l-75
-38 -311 -6 c-171 -4 -359 -8 -418 -8 l-107 -1 -3 -102 -3 -103 -110 -12
c-141 -14 -319 -46 -465 -83 -292 -73 -498 -175 -626 -311 -68 -73 -100 -130
-123 -223 -22 -87 -24 -91 -46 -82 -25 9 -29 35 -17 94 25 120 99 236 207 325
191 158 586 291 1007 340 l103 12 3 71 3 71 -188 6 c-198 7 -255 17 -340 60
-62 32 -163 123 -205 186 -17 25 -33 48 -35 50 -1 2 -29 -21 -61 -52 -106
-100 -201 -146 -337 -161 -180 -21 -385 88 -486 257 -18 31 -36 57 -39 57 -3
0 -16 -24 -29 -52z"/>
</g>
</svg>
