<?xml version="1.0" standalone="no"?>
<!DOCTYPE svg PUBLIC "-//W3C//DTD SVG 20010904//EN"
 "http://www.w3.org/TR/2001/REC-SVG-20010904/DTD/svg10.dtd">
<svg version="1.0" xmlns="http://www.w3.org/2000/svg"
 width="1351.000000pt" height="947.000000pt" viewBox="0 0 1351.000000 947.000000"
 preserveAspectRatio="xMidYMid meet">

<g transform="translate(0.000000,947.000000) scale(0.100000,-0.100000)"
fill="#000000" stroke="none">
<path d="M5725 9399 c-55 -29 -88 -62 -113 -113 -22 -42 -22 -51 -22 -528 l0
-486 33 -48 c64 -97 165 -139 275 -114 47 10 65 21 113 69 47 47 58 66 68 109
7 35 11 206 11 500 0 435 -1 448 -21 487 -29 55 -75 101 -124 125 -58 28 -166
28 -220 -1z"/>
<path d="M6274 9406 c-49 -22 -110 -82 -133 -132 -22 -45 -22 -53 -19 -522 3
-529 0 -503 72 -575 52 -52 101 -72 181 -71 82 0 134 22 183 79 60 68 59 59
66 470 3 209 2 433 -3 497 -8 111 -10 120 -42 165 -48 68 -120 103 -208 103
-36 -1 -80 -7 -97 -14z"/>
<path d="M6805 9402 c-51 -24 -122 -103 -135 -151 -6 -22 -10 -219 -10 -499 0
-446 1 -464 20 -503 85 -165 301 -198 418 -64 29 33 32 42 32 104 0 37 7 91
15 119 13 43 15 115 13 450 l-3 399 -30 49 c-19 30 -49 60 -79 79 -42 25 -61
30 -125 33 -58 2 -86 -2 -116 -16z"/>
<path d="M7333 9399 c-48 -24 -99 -77 -119 -125 -10 -24 -15 -128 -20 -405
l-7 -374 33 28 c78 66 99 72 295 77 l180 5 0 320 c-1 309 -1 321 -22 361 -25
47 -82 101 -129 120 -52 22 -161 18 -211 -7z"/>
<path d="M3436 9198 c4 -7 122 -186 262 -398 140 -211 256 -390 259 -397 4 -9
-169 -13 -799 -16 -776 -3 -806 -4 -893 -24 -278 -66 -494 -184 -690 -378
-192 -191 -312 -412 -378 -700 -21 -88 -21 -116 -24 -1291 l-4 -1201 178 -5
c98 -2 222 -2 275 0 l98 4 0 447 c0 588 9 1698 15 1834 16 370 303 688 674
748 64 10 1528 16 1538 6 2 -3 -96 -158 -219 -346 -123 -188 -242 -370 -265
-406 l-43 -65 273 0 272 0 95 88 c53 48 287 258 520 467 234 209 469 420 524
469 l99 90 -29 24 c-16 14 -65 58 -109 97 -44 40 -303 274 -575 519 l-495 446
-283 0 c-224 0 -282 -3 -276 -12z"/>
<path d="M7315 8546 c-41 -19 -111 -93 -130 -138 -8 -21 -15 -65 -15 -98 0
-100 52 -181 147 -229 41 -20 56 -21 403 -21 343 0 363 1 401 20 64 33 117 95
135 158 36 122 -10 232 -126 301 -34 20 -47 21 -410 21 -292 -1 -382 -4 -405
-14z"/>
<path d="M8728 8173 c-2 -98 -2 -222 0 -275 l4 -98 447 0 c588 0 1698 -9 1834
-15 370 -16 688 -303 748 -674 10 -64 16 -1528 6 -1538 -3 -2 -158 96 -346
219 -188 123 -370 242 -406 265 l-65 43 0 -273 0 -272 88 -95 c48 -53 258
-287 467 -520 209 -234 420 -469 469 -524 l90 -99 24 29 c14 16 58 65 97 109
40 44 274 303 519 575 l446 495 0 283 c0 224 -3 282 -12 276 -7 -4 -186 -122
-398 -262 -211 -140 -390 -256 -397 -259 -9 -4 -13 169 -16 799 -3 776 -4 806
-24 893 -66 278 -184 494 -378 690 -191 192 -412 312 -700 378 -88 21 -116 21
-1291 24 l-1201 4 -5 -178z"/>
<path d="M6077 8193 c-58 -89 -189 -145 -288 -124 -69 15 -106 35 -162 90
l-49 46 7 -260 c9 -348 31 -459 131 -674 24 -52 70 -133 101 -180 70 -105 241
-278 343 -348 360 -245 810 -304 1220 -161 360 126 667 429 805 793 61 161 76
259 82 529 l6 250 -54 -46 c-96 -81 -95 -81 -356 -86 l-232 -5 -3 -56 -3 -56
-100 -12 c-213 -26 -397 -84 -506 -158 -76 -52 -117 -105 -134 -173 -8 -31
-18 -48 -30 -51 -16 -3 -17 2 -11 39 16 102 98 194 229 259 123 60 219 85 485
127 30 5 32 8 32 43 l0 38 -126 6 c-151 7 -189 22 -264 104 l-50 55 -41 -37
c-62 -56 -112 -75 -199 -75 -108 0 -176 37 -248 135 -21 29 -22 29 -33 10 -7
-11 -33 -41 -59 -66 -127 -125 -345 -102 -439 46 l-26 41 -28 -43z"/>
<path d="M1335 4333 c-44 -23 -104 -82 -126 -125 -18 -35 -19 -65 -19 -560 0
-858 -11 -1438 -27 -1438 -11 0 -13 145 -13 838 l0 837 -24 51 c-85 183 -307
221 -438 76 -67 -75 -63 -4 -68 -974 -3 -487 -8 -889 -12 -893 -15 -16 -18 60
-20 575 l-3 535 -27 51 c-30 56 -84 109 -134 130 -19 8 -65 14 -104 14 -110 0
-189 -48 -239 -146 l-22 -41 4 -1019 3 -1019 26 -96 c89 -326 271 -601 526
-795 94 -71 308 -182 412 -215 417 -130 852 -71 1207 164 124 81 281 232 371
355 69 93 170 292 202 397 61 199 61 204 67 922 l5 661 -24 54 c-50 108 -138
168 -248 168 -103 0 -184 -47 -238 -139 l-27 -46 -5 -570 -5 -570 -140 -6
c-240 -11 -404 -67 -510 -173 -50 -50 -64 -71 -78 -121 -9 -33 -18 -69 -19
-80 -2 -14 -12 -21 -32 -23 l-29 -4 6 58 c12 119 93 230 220 303 92 53 249 90
450 106 l78 7 -4 1136 c-2 846 -6 1146 -15 1173 -18 55 -84 123 -144 149 -107
46 -232 19 -306 -66 -69 -77 -66 -37 -69 -906 -2 -434 -8 -788 -12 -788 -16 0
-21 258 -21 1062 0 792 -1 820 -20 857 -54 106 -128 151 -247 151 -51 -1 -88
-6 -108 -17z"/>
<path d="M11969 3970 c-40 -21 -104 -88 -122 -128 -18 -40 -23 -1993 -6 -2036
52 -130 188 -201 316 -165 33 9 63 28 100 64 l53 51 0 80 c1 126 54 215 165
271 46 24 63 26 229 32 l179 6 29 105 c16 58 39 143 52 190 339 1216 330 1179
315 1254 -22 117 -124 200 -244 199 -107 -1 -198 -62 -233 -156 -11 -29 -68
-223 -127 -432 -249 -884 -294 -1042 -306 -1070 -12 -28 -14 -22 -20 80 -3 61
-7 420 -8 798 l-1 688 -24 48 c-27 53 -83 106 -132 127 -50 21 -171 17 -215
-6z"/>
<path d="M10939 2956 c-62 -16 -123 -67 -159 -130 l-30 -51 0 -474 c0 -543 -3
-520 91 -605 146 -132 381 -48 409 145 5 35 10 260 10 499 l0 435 -30 52 c-61
106 -180 159 -291 129z"/>
<path d="M11478 2956 c-26 -7 -55 -19 -65 -26 -49 -37 -77 -69 -99 -112 l-24
-47 0 -478 0 -478 30 -52 c87 -152 296 -176 410 -47 73 84 71 70 68 592 -3
466 -3 467 -26 514 -52 105 -181 164 -294 134z"/>
<path d="M4320 2723 c-251 -226 -399 -359 -695 -623 -132 -118 -264 -237 -293
-265 l-53 -50 103 -91 c57 -51 328 -295 603 -543 l500 -451 283 0 c224 0 282
3 276 12 -5 7 -122 186 -262 398 -140 212 -257 391 -259 397 -4 10 584 13
2903 15 l2909 3 0 270 0 270 -2897 5 c-1593 3 -2900 8 -2903 12 -4 4 48 92
117 195 68 103 168 257 223 341 55 84 119 182 142 217 l43 65 -273 0 -272 -1
-195 -176z"/>
<path d="M12530 2091 c-68 -21 -118 -62 -159 -131 -27 -45 -30 -174 -5 -225
23 -49 105 -121 150 -134 25 -7 170 -11 392 -11 l353 0 48 24 c90 46 143 129
143 226 0 94 -42 169 -125 222 l-52 33 -360 2 c-198 1 -371 -2 -385 -6z"/>
<path d="M11270 1763 c0 -26 -101 -121 -152 -143 -114 -50 -235 -23 -330 72
l-46 47 4 -142 c2 -78 6 -203 8 -277 8 -258 83 -486 233 -712 64 -97 249 -282
346 -347 157 -105 321 -174 500 -212 143 -31 400 -31 537 -1 540 118 939 515
1056 1051 21 97 35 328 28 467 l-7 121 -38 -42 c-21 -22 -59 -52 -86 -65 -46
-24 -56 -25 -285 -28 l-238 -4 0 -58 0 -58 -97 -12 c-362 -44 -596 -165 -644
-330 -15 -55 -27 -70 -38 -51 -21 34 29 149 91 208 96 92 344 184 563 208 93
10 95 11 95 54 l0 39 -127 4 c-152 5 -183 17 -261 103 l-52 57 -42 -36 c-68
-59 -121 -79 -203 -79 -96 0 -179 42 -235 120 l-38 53 -25 -43 c-45 -76 -144
-129 -242 -131 -97 -1 -195 51 -246 132 -16 25 -29 41 -29 35z"/>
</g>
</svg>
